<svg id="visual" viewBox="0 0 960 540" width="960" height="540" xmlns="http://www.w3.org/2000/svg" xmlns:xlink="http://www.w3.org/1999/xlink" version="1.1"><rect x="0" y="0" width="960" height="540" fill="#f5f5f5"></rect><defs><linearGradient id="grad1_0" x1="43.8%" y1="0%" x2="100%" y2="100%"><stop offset="14.444444444444446%" stop-color="#f5f5f5" stop-opacity="1"></stop><stop offset="85.55555555555554%" stop-color="#f5f5f5" stop-opacity="1"></stop></linearGradient></defs><defs><linearGradient id="grad2_0" x1="0%" y1="0%" x2="56.3%" y2="100%"><stop offset="14.444444444444446%" stop-color="#f5f5f5" stop-opacity="1"></stop><stop offset="85.55555555555554%" stop-color="#f5f5f5" stop-opacity="1"></stop></linearGradient></defs><g transform="translate(960, 0)"><path d="M0 189C-17.8 171.4 -35.7 153.8 -61.2 147.8C-86.8 141.8 -120.1 147.5 -133.6 133.6C-147.2 119.8 -141 86.4 -146.9 60.8C-152.8 35.3 -170.9 17.7 -189 0L0 0Z" fill="#0066FF"></path></g><g transform="translate(0, 540)"><path d="M0 -189C23.6 -180.7 47.2 -172.3 66.6 -160.8C86 -149.2 101.1 -134.4 120.2 -120.2C139.3 -106 162.5 -92.3 174.6 -72.3C186.7 -52.4 187.9 -26.2 189 0L0 0Z" fill="#0066FF"></path></g></svg>