<svg width="33" height="33" viewBox="0 0 33 33" fill="none" xmlns="http://www.w3.org/2000/svg">
<rect x="0.853638" y="0.466583" width="32" height="32" rx="2" fill="#F5F5F5"/>
<path d="M12.0228 27.0683C12.0228 29.2774 10.232 31.0683 8.02283 31.0683C5.81369 31.0683 4.02283 29.2774 4.02283 27.0683C4.02283 24.8591 5.81369 23.0683 8.02283 23.0683C10.232 23.0683 12.0228 24.8591 12.0228 27.0683Z" fill="#2E2E2E"/>
<path d="M30.0234 27.0683C30.0234 29.2774 28.2326 31.0683 26.0234 31.0683C23.8143 31.0683 22.0234 29.2774 22.0234 27.0683C22.0234 24.8591 23.8143 23.0683 26.0234 23.0683C28.2326 23.0683 30.0234 24.8591 30.0234 27.0683Z" fill="#2E2E2E"/>
<circle cx="26.0234" cy="6.10226" r="4" fill="#2E2E2E"/>
<circle cx="8.02283" cy="6.10226" r="4" fill="#2E2E2E"/>
</svg>
