<svg width="33" height="33" viewBox="0 0 33 33" fill="none" xmlns="http://www.w3.org/2000/svg">
<rect x="0.403961" y="0.466583" width="32" height="32" rx="2" fill="#F5F5F5"/>
<circle cx="16.5735" cy="27.0683" r="4" fill="#2E2E2E"/>
<circle cx="16.5735" cy="6.10226" r="4" fill="#2E2E2E"/>
<path d="M11.5732 27.0683C11.5732 29.2774 9.78229 31.0683 7.57315 31.0683C5.36401 31.0683 3.57315 29.2774 3.57315 27.0683C3.57315 24.8591 5.36401 23.0683 7.57315 23.0683C9.78229 23.0683 11.5732 24.8591 11.5732 27.0683Z" fill="#2E2E2E"/>
<path d="M29.5738 27.0683C29.5738 29.2774 27.7829 31.0683 25.5738 31.0683C23.3646 31.0683 21.5738 29.2774 21.5738 27.0683C21.5738 24.8591 23.3646 23.0683 25.5738 23.0683C27.7829 23.0683 29.5738 24.8591 29.5738 27.0683Z" fill="#2E2E2E"/>
<circle cx="25.5738" cy="6.10226" r="4" fill="#2E2E2E"/>
<circle cx="7.57318" cy="6.10226" r="4" fill="#2E2E2E"/>
</svg>
