<svg width="33" height="33" viewBox="0 0 33 33" fill="none" xmlns="http://www.w3.org/2000/svg">
<rect x="0.628967" y="0.466583" width="32" height="32" rx="2" fill="#F5F5F5"/>
<circle cx="16.629" cy="16.4666" r="4" fill="#2E2E2E"/>
<path d="M11.7982 27.0683C11.7982 29.2774 10.0073 31.0683 7.79816 31.0683C5.58902 31.0683 3.79816 29.2774 3.79816 27.0683C3.79816 24.8591 5.58902 23.0683 7.79816 23.0683C10.0073 23.0683 11.7982 24.8591 11.7982 27.0683Z" fill="#2E2E2E"/>
<path d="M29.7988 27.0683C29.7988 29.2774 28.0079 31.0683 25.7988 31.0683C23.5896 31.0683 21.7988 29.2774 21.7988 27.0683C21.7988 24.8591 23.5896 23.0683 25.7988 23.0683C28.0079 23.0683 29.7988 24.8591 29.7988 27.0683Z" fill="#2E2E2E"/>
<circle cx="25.7988" cy="6.10226" r="4" fill="#2E2E2E"/>
<circle cx="7.79819" cy="6.10226" r="4" fill="#2E2E2E"/>
</svg>
